<!DOCTYPE svg PUBLIC "-//W3C//DTD SVG 1.1//EN" "http://www.w3.org/Graphics/SVG/1.1/DTD/svg11.dtd">
<!-- Uploaded to: SVG Repo, www.svgrepo.com, Transformed by: SVG Repo Mixer Tools -->
<svg height="800px" width="800px" version="1.1" id="_x32_" xmlns="http://www.w3.org/2000/svg" xmlns:xlink="http://www.w3.org/1999/xlink" viewBox="0 0 512 512" xml:space="preserve" fill="#000000" transform="rotate(0)matrix(-1, 0, 0, 1, 0, 0)">
<g id="SVGRepo_bgCarrier" stroke-width="0"/>
<g id="SVGRepo_tracerCarrier" stroke-linecap="round" stroke-linejoin="round"/>
<g id="SVGRepo_iconCarrier"> <style type="text/css"> .st0{fill:#000000;} </style> <g> <path class="st0" d="M259.252,135.818c0,3.453,2.76,6.258,6.204,6.258h9.799v5.184c0,3.453,2.84,6.284,6.213,6.284 c3.524,0,6.32-2.831,6.32-6.284v-24.374c0-5.299,0.923-8.99,2.61-10.642c1.89-1.988,5.92-1.988,10.154-1.837h25.97 c3.533,0,6.249-2.831,6.249-6.302c0-3.39-2.716-6.23-6.249-6.23h-25.935c-5.964-0.054-13.456-0.106-19.012,5.45 c-4.26,4.207-6.319,10.571-6.319,19.562v6.622h-9.799C262.012,129.507,259.252,132.365,259.252,135.818z"/> <path class="st0" d="M242.095,85.998h10.491v8.946c0,3.408,2.787,6.267,6.284,6.267c3.39,0,6.186-2.858,6.186-6.267V66.586 c0-3.453-2.796-6.275-6.186-6.275c-3.497,0-6.284,2.822-6.284,6.275v6.878h-10.491c-3.391,0-6.186,2.858-6.186,6.249 C235.908,83.194,238.704,85.998,242.095,85.998z"/> <path class="st0" d="M271.233,175.341c-1.082,0-1.98,0-2.866,0h-50.45c-7.908,0-13.65-1.73-16.908-5.192 c-5.317-5.618-4.891-15.541-4.501-23.6c0.08-1.935,0.16-3.745,0.16-5.335c0-3.487-2.751-6.256-6.159-6.256 c-3.533,0-6.329,2.769-6.329,6.256c0,1.394-0.08,3.054-0.16,4.82c-0.452,9.249-1.082,23.237,7.838,32.681 c5.805,6.088,14.538,9.142,26.059,9.142h50.45c0.923,0,1.97,0,3.071,0c8.521-0.125,21.462-0.311,28.34,6.426 c3.596,3.515,5.3,8.654,5.3,15.737c0,3.399,2.84,6.257,6.249,6.257c3.506,0,6.248-2.858,6.248-6.257 c0-10.429-3.036-18.719-9-24.604C297.932,174.924,281.192,175.19,271.233,175.341z"/> <path class="st0" d="M316.279,140.575c-3.373,0-6.231,2.832-6.231,6.284c0,3.453,2.858,6.276,6.231,6.276h15.453v11.396 c0,3.479,2.76,6.266,6.31,6.266c3.426,0,6.178-2.786,6.178-6.266v-11.396h15.887c3.462,0,6.284-2.823,6.284-6.276 c0-3.452-2.822-6.284-6.284-6.284H316.279z"/> <path class="st0" d="M148.721,92.469h15.834c3.497,0,6.284-2.796,6.284-6.302c0-3.426-2.787-6.204-6.284-6.204h-15.834 c-3.39,0-6.178,2.778-6.178,6.204C142.543,89.673,145.331,92.469,148.721,92.469z"/> <path class="st0" d="M499.51,335.772l-46.048-130.234C445.439,90.702,349.802,0,232.917,0C110.768,0,11.759,99.019,11.759,221.158 v69.684C11.759,412.982,110.768,512,232.917,512c100.571,0,185.406-67.154,212.256-159.054h42.186c4.181,0,8.104-2.032,10.518-5.45 C500.291,344.088,500.895,339.712,499.51,335.772z M328.82,214.59c2.511,14.166-2.495,37.128-47.051,37.128 c-21.355,0-51.382,0-61.731,0c0,33.737-50.903,25.819-68.779,25.819c-17.911,0-20.832-19.19-17.565-24.178 c-55.846-0.417-63.701-58.749-49.988-84.196C89.573,99.96,159.585,50.77,229.242,50.77c91.661,0,85.59,30.009,95.805,30.861 c25.03,2.023,59.219,31.269,59.219,65.415C384.267,181.244,370.074,214.59,328.82,214.59z"/> <path class="st0" d="M108.665,164.646h32.174c5.716,0,9.222-2.308,11.104-4.252c4.855-4.926,4.829-12.169,4.695-16.474v-0.94 V122.06c0-3.159,0.631-5.512,1.704-6.568c1.722-1.652,5.787-1.509,9.089-1.358c0.933,0,1.775,0.062,2.565,0.062h40.936 c0,0,0.062-0.062,0.204-0.062c5.184,0,12.586,0,14.574,1.943c0.124,0.151,0.586,0.506,0.586,2.086v34.101 c0,3.479,2.84,6.293,6.23,6.293c3.444,0,6.248-2.814,6.248-6.293v-34.101c0-5.547-2.378-9.018-4.269-10.953 c-5.813-5.698-15.595-5.672-24.098-5.573c-1.1,0-2.129,0-3.071,0c-3.301,0-4.154-0.542-4.154-0.542 c-0.311-0.603-0.311-2.911-0.311-4.376V78.463c0-3.417-2.725-6.231-6.204-6.231c-3.408,0-6.213,2.814-6.213,6.231v18.15 c-0.071,1.572-0.071,3.302,0.169,5.024h-20.628c-0.63,0-1.322-0.028-2.138-0.028c-5.024-0.204-12.604-0.425-18.187,4.926 c-3.621,3.497-5.52,8.742-5.52,15.524v21.968c0,2.06,0.08,6.355-1.074,7.536c-0.532,0.497-1.792,0.542-2.237,0.542h-32.174 c-3.364,0-6.151,2.831-6.151,6.258C102.513,161.859,105.301,164.646,108.665,164.646z"/> <path class="st0" d="M118.331,225.028h-15.817c-3.496,0-6.32,2.752-6.32,6.222c0,3.47,2.823,6.204,6.32,6.204h15.817 c3.496,0,6.284-2.734,6.284-6.204C124.615,227.78,121.827,225.028,118.331,225.028z"/> <path class="st0" d="M271.74,208.706h-79.19c-3.497,0-6.231,2.867-6.231,6.258c0,3.47,2.734,6.267,6.231,6.267h42.506v12.479 c0,3.506,2.797,6.258,6.24,6.258c3.453,0,6.23-2.752,6.23-6.258V221.23h24.214c3.408,0,6.266-2.797,6.266-6.267 C278.005,211.573,275.148,208.706,271.74,208.706z"/> <path class="st0" d="M169.819,192.295c0-3.453-2.814-6.284-6.258-6.284h-43.722c-3.533,0-6.31,2.831-6.31,6.284 c0,3.461,2.778,6.204,6.31,6.204h2.254v10.207c0,3.533,2.805,6.258,6.248,6.258c3.453,0,6.284-2.725,6.284-6.258v-10.207h28.935 C167.005,198.499,169.819,195.756,169.819,192.295z"/> <path class="st0" d="M187.935,239.594h-21.675v-11.636c0-3.542-2.786-6.266-6.248-6.266c-3.479,0-6.23,2.725-6.23,6.266v11.636 h-2.948c-3.426,0-6.248,2.796-6.248,6.275c0,3.434,2.823,6.213,6.248,6.213h37.102c3.444,0,6.248-2.779,6.248-6.213 C194.183,242.39,191.378,239.594,187.935,239.594z"/> </g> </g>
</svg>