<?xml version="1.0" encoding="utf-8"?>
<!-- Generator: Adobe Illustrator 25.0.1, SVG Export Plug-In . SVG Version: 6.00 Build 0)  -->
<svg version="1.0" id="katman_1" xmlns="http://www.w3.org/2000/svg" xmlns:xlink="http://www.w3.org/1999/xlink" x="0px" y="0px"
	 viewBox="0 0 560 400" style="enable-background:new 0 0 560 400;" xml:space="preserve">
<style type="text/css">
	.st0{fill:#030404;}
</style>
<path class="st0" d="M498,172.9v55h-7.1v-55H498z M453.8,222.5c1.4,0.2,3.4,0.3,6,0.3c7.3,0,14.1-2.7,14.1-10.7
	c0-7.5-6.4-10.6-14.2-10.6h-5.9V222.5z M453.8,196.1h6.4c7.5,0,11.9-3.9,11.9-9.2c0-6.4-4.9-9-12.1-9c-3.3,0-5.1,0.2-6.3,0.5V196.1z
	 M446.7,173.6c3.1-0.7,8-1.1,13-1.1c7.1,0,11.7,1.2,15.1,4c2.9,2.1,4.6,5.4,4.6,9.7c0,5.3-3.5,10-9.3,12.1v0.2
	c5.2,1.3,11.3,5.6,11.3,13.8c0,4.7-1.9,8.3-4.6,11c-3.8,3.5-10,5.1-19,5.1c-4.9,0-8.6-0.3-11-0.7V173.6z M402.5,200.7
	c0-4.7-0.1-8.6-0.3-12.3h6.3l0.2,7.8h0.3c1.8-5.3,6.1-8.6,10.9-8.6c0.8,0,1.4,0.1,2,0.2v6.8c-0.7-0.2-1.5-0.2-2.4-0.2
	c-5.1,0-8.6,3.8-9.6,9.2c-0.2,1-0.3,2.1-0.3,3.3v21h-7.1V200.7z M386.6,204.3c0.1-4.6-1.9-11.7-10-11.7c-7.3,0-10.4,6.7-11,11.7
	H386.6z M365.6,209.4c0.2,9.7,6.4,13.7,13.5,13.7c5.1,0,8.2-0.9,10.9-2l1.2,5.1c-2.5,1.1-6.9,2.4-13.1,2.4c-12.2,0-19.4-8-19.4-19.9
	c0-11.9,7-21.3,18.5-21.3c12.9,0,16.3,11.3,16.3,18.6c0,1.5-0.2,2.6-0.2,3.3H365.6z M305.2,188.4l5.2,20.1c1.1,4.4,2.2,8.5,2.9,12.6
	h0.2c0.9-4,2.2-8.2,3.5-12.5l6.4-20.2h6l6.1,19.7c1.5,4.7,2.6,8.9,3.5,12.9h0.2c0.7-4,1.7-8.2,3-12.8l5.6-19.8h7.1l-12.7,39.5H336
	l-6-18.8c-1.4-4.4-2.5-8.3-3.5-13h-0.2c-1,4.7-2.2,8.8-3.6,13.1l-6.4,18.8h-6.5l-11.9-39.5H305.2z M262.5,208.2
	c0,8.6,5,15.2,12,15.2c6.9,0,12-6.4,12-15.3c0-6.7-3.3-15.2-11.8-15.2C266.2,192.9,262.5,200.7,262.5,208.2L262.5,208.2z
	 M293.9,207.8c0,14.6-10.1,21-19.7,21c-10.7,0-18.9-7.8-18.9-20.3c0-13.2,8.6-21,19.6-21C286.2,187.5,293.9,195.7,293.9,207.8
	L293.9,207.8z M224.1,200c1.6,0.4,3.5,0.6,5.9,0.6c8.6,0,13.8-4.2,13.8-11.7c0-7.3-5.1-10.8-13-10.8c-3.1,0-5.5,0.2-6.7,0.6V200z
	 M217,173.5c3.4-0.6,7.9-1.1,13.6-1.1c7,0,12.2,1.6,15.4,4.6c3,2.6,4.8,6.6,4.8,11.5c0,5-1.5,8.9-4.2,11.7c-3.8,4-9.9,6-16.8,6
	c-2.1,0-4.1-0.1-5.7-0.5v22H217V173.5z M161.5,174.5L74.4,149c-0.7-0.2-1.3-0.3-1.9-0.3c-3.7,0-6.9,3-6.9,6.9v41.1h5.2v-41.1
	c0-1.1,0.9-1.7,1.7-1.7c0.2,0,0.3,0,0.5,0.1l87.1,25.4c0.7,0.2,1.2,0.9,1.2,1.7v54.8c0,1.1-0.9,1.7-1.7,1.7c-0.2,0-0.3,0-0.5-0.1
	l-19.9-5.8v5.4l18.4,5.4c0.7,0.2,1.3,0.3,1.9,0.3c3.7,0,6.9-3,6.9-6.9v-54.8C166.5,178,164.5,175.3,161.5,174.5z M132.9,244.7v-55.6
	c0-3.6-2.9-6.5-6.5-6.5c-3.6,0-6.5,2.9-6.5,6.5v55.6c0,3.6,2.9,6.5,6.5,6.5C130,251.2,132.9,248.3,132.9,244.7z M113.6,238.6v-42.7
	c0-3.6-2.9-6.5-6.5-6.5c-3.6,0-6.5,2.9-6.5,6.5v42.7c0,3.6,2.9,6.5,6.5,6.5C110.7,245.1,113.6,242.2,113.6,238.6z M94.3,232v-29.8
	c0-3.6-2.9-6.5-6.5-6.5c-3.6,0-6.5,2.9-6.5,6.5V232c0,3.6,2.9,6.5,6.5,6.5C91.4,238.5,94.3,235.6,94.3,232z M68.5,232.6
	c-3.6,0-6.5-2.9-6.5-6.5v-17.2c0-3.6,2.9-6.5,6.5-6.5c3.6,0,6.5,2.9,6.5,6.5v17.2C75.1,229.7,72.1,232.6,68.5,232.6z"/>
</svg>
