<?xml version="1.0" encoding="utf-8"?>
<!-- Uploaded to: SVG Repo, www.svgrepo.com, Generator: SVG Repo Mixer Tools -->
<svg version="1.1" id="Uploaded to svgrepo.com" xmlns="http://www.w3.org/2000/svg" xmlns:xlink="http://www.w3.org/1999/xlink" 
	 width="800px" height="800px" viewBox="0 0 32 32" xml:space="preserve">
<style type="text/css">
	.duotone_twee{fill:#555D5E;}
	.duotone_een{fill:#0B1719;}
</style>
<g>
	<path class="duotone_een" d="M25.416,10c-0.275,0-0.477,0.224-0.448,0.497c0,0,0.032,0.304,0.032,0.503c0,1.105-0.895,2-2,2
		c-1.105,0-2-0.895-2-2c0-0.198,0.032-0.503,0.032-0.503C21.06,10.224,20.859,10,20.584,10H16.5c-0.276,0-0.5,0.224-0.5,0.5v4.084
		c0,0.275-0.224,0.477-0.497,0.448c0,0-0.304-0.032-0.503-0.032c-1.105,0-2,0.895-2,2c0,1.105,0.895,2,2,2
		c0.198,0,0.503-0.032,0.503-0.032C15.776,18.94,16,19.141,16,19.416V22.5c0,0.276,0.224,0.5,0.5,0.5h4.084
		c0.275,0,0.477-0.224,0.448-0.497c0,0-0.032-0.304-0.032-0.503c0-1.105,0.895-2,2-2c1.105,0,2,0.895,2,2
		c0,0.198-0.032,0.503-0.032,0.503C24.94,22.776,25.141,23,25.416,23H27.5c0.276,0,0.5-0.224,0.5-0.5v-12c0-0.276-0.224-0.5-0.5-0.5
		H25.416z"/>
	<path class="duotone_twee" d="M12,17c0-1.654,1.346-3,3-3v-3.5c0-0.276-0.224-0.5-0.5-0.5h-4.084c-0.275,0-0.477-0.224-0.448-0.497
		C9.968,9.503,10,9.198,10,9c0-1.105-0.895-2-2-2C6.895,7,6,7.895,6,9c0,0.198,0.032,0.503,0.032,0.503
		C6.06,9.776,5.859,10,5.584,10H4.5C4.224,10,4,10.224,4,10.5v12C4,22.776,4.224,23,4.5,23h1.084c0.275,0,0.477,0.224,0.448,0.497
		C6.032,23.497,6,23.802,6,24c0,1.105,0.895,2,2,2c1.105,0,2-0.895,2-2c0-0.198-0.032-0.503-0.032-0.503
		C9.94,23.224,10.141,23,10.416,23H14.5c0.276,0,0.5-0.224,0.5-0.5V20C13.346,20,12,18.654,12,17z"/>
</g>
</svg>